<?xml version="1.0" encoding="utf-8"?>
<!-- Generator: Adobe Illustrator 26.0.3, SVG Export Plug-In . SVG Version: 6.00 Build 0)  -->
<svg version="1.1"
	 id="svg2" xmlns:cc="http://web.resource.org/cc/" xmlns:dc="http://purl.org/dc/elements/1.1/" xmlns:inkscape="http://www.inkscape.org/namespaces/inkscape" xmlns:rdf="http://www.w3.org/1999/02/22-rdf-syntax-ns#" xmlns:sodipodi="http://inkscape.sourceforge.net/DTD/sodipodi-0.dtd" xmlns:svg="http://www.w3.org/2000/svg"
	 xmlns="http://www.w3.org/2000/svg" xmlns:xlink="http://www.w3.org/1999/xlink" x="0px" y="0px" viewBox="0 0 111.2 112.4"
	 style="enable-background:new 0 0 111.2 112.4;" xml:space="preserve">
	<g>
		<path d="M54.9,0c-4.6,0-9,0.4-12.8,1.1C30.8,3.1,28.7,7.3,28.7,15v10.2h26.8v3.4H28.7H18.6c-7.8,0-14.6,4.7-16.8,13.6
			c-2.5,10.2-2.6,16.6,0,27.2C3.7,77.3,8.3,83,16.1,83h9.2V70.8C25.3,62,33,54.1,42,54.1h26.8c7.5,0,13.4-6.1,13.4-13.6V15
			c0-7.3-6.1-12.7-13.4-13.9C64.3,0.3,59.5,0,54.9,0z M40.4,8.2c2.8,0,5,2.3,5,5.1s-2.3,5.1-5,5.1c-2.8,0-5-2.3-5-5.1
			S37.6,8.2,40.4,8.2z"/>
		<path d="M95.7,30.7c5.9,0,9.4,3.7,11.5,12.1c2.7,10.7,2.7,18.3,0,26.1c-2.7,8.1-5.2,12.2-11.5,12.2H82.3H55.5h-2v2
			v3.4v2h2h24.8v8.2c0,5.5-4,9.4-12,11.7c-4.6,1.3-8.8,2-12.9,2s-8.2-0.6-12.7-2c-4.5-1.3-12-4.6-12-11.7V71.2
			c0-6.3,5.2-11.6,11.4-11.6h26.8c10.2,0,18.8-8.7,18.8-19v-9.9L95.7,30.7 M70.6,105.5c3.9,0,7-3.2,7-7.1s-3.2-7.1-7-7.1
			c-3.9,0-7,3.2-7,7.1C63.5,102.3,66.7,105.5,70.6,105.5 M95.7,28.7H85.6v11.9c0,9.2-7.8,17-16.8,17H42.1c-7.3,0-13.4,6.3-13.4,13.6
			v25.5c0,7.3,6.3,11.5,13.4,13.6c4.4,1.3,8.7,2,13.3,2c4.2,0,8.6-0.6,13.5-2c6.8-2,13.4-5.9,13.4-13.6V86.5H55.5v-3.4h26.8h13.4
			c7.8,0,10.7-5.4,13.4-13.6c2.8-8.4,2.7-16.5,0-27.2C107.2,34.5,103.5,28.7,95.7,28.7L95.7,28.7z M70.6,103.5c-2.8,0-5-2.3-5-5.1
			c0-2.8,2.3-5.1,5-5.1c2.8,0,5,2.3,5,5.1S73.4,103.5,70.6,103.5L70.6,103.5z"/>
	</g>
</svg>
