<?xml version="1.0" standalone="no"?>
<!DOCTYPE svg PUBLIC "-//W3C//DTD SVG 20010904//EN"
 "http://www.w3.org/TR/2001/REC-SVG-20010904/DTD/svg10.dtd">
<svg version="1.0" xmlns="http://www.w3.org/2000/svg"
 width="1280.000000pt" height="853.000000pt" viewBox="0 0 1280.000000 853.000000"
 preserveAspectRatio="xMidYMid meet">
<g transform="translate(0.000000,853.000000) scale(0.100000,-0.100000)"
fill="#000000" stroke="none">
<path d="M6490 8193 c-788 -59 -1565 -319 -1961 -656 -128 -108 -221 -252
-234 -362 -13 -105 43 -221 144 -301 220 -173 598 -263 1113 -264 309 -1 494
17 783 76 125 25 318 75 312 80 -1 2 -70 -10 -152 -27 -776 -153 -1573 -65
-1873 207 -316 285 -2 695 748 976 227 85 501 151 785 189 217 29 599 32 790
5 242 -33 456 -102 586 -189 79 -52 165 -146 197 -214 37 -80 42 -195 13 -291
-23 -76 -92 -188 -165 -269 -99 -110 -324 -277 -508 -377 -49 -26 -88 -50 -88
-53 0 -8 239 120 339 182 280 174 474 372 548 561 34 88 38 220 10 301 -79
228 -353 371 -797 418 -121 13 -462 18 -590 8z"/>
<path d="M10660 7689 c-588 -40 -1197 -201 -1637 -434 -163 -86 -280 -170
-389 -279 -82 -82 -108 -116 -140 -180 -34 -70 -39 -87 -39 -155 0 -63 5 -85
28 -133 59 -121 238 -240 452 -303 50 -15 104 -32 120 -38 17 -7 33 -11 37 -9
4 1 60 -7 125 -18 364 -63 862 -45 1293 45 138 29 282 67 276 72 -2 2 -59 -7
-127 -21 -266 -53 -493 -76 -754 -76 -565 0 -1027 134 -1181 342 -53 72 -67
121 -62 208 5 102 50 184 162 296 274 275 808 498 1416 591 162 25 199 27 490
27 280 1 329 -2 440 -21 229 -40 399 -100 526 -185 234 -156 288 -383 149
-621 -99 -168 -345 -377 -615 -523 -38 -21 -68 -40 -65 -42 5 -6 200 98 307
165 202 125 397 298 483 428 149 226 134 451 -41 615 -80 74 -161 120 -294
164 -241 80 -579 110 -960 85z"/>
<path d="M5985 6225 c14 -72 37 -137 46 -128 5 5 -3 38 -21 83 -17 41 -28 62
-25 45z"/>
<path d="M5805 6210 c20 -67 79 -210 86 -210 14 0 11 9 -38 120 -48 108 -61
133 -48 90z"/>
<path d="M2875 6214 c-16 -2 -86 -9 -155 -15 -280 -24 -687 -109 -962 -200
-555 -183 -938 -435 -1060 -695 -26 -55 -31 -80 -32 -138 -1 -213 199 -371
588 -467 226 -55 319 -64 676 -64 348 0 449 9 725 61 130 25 368 84 363 90 -2
1 -71 -10 -153 -27 -685 -135 -1383 -85 -1760 126 -351 196 -303 518 120 800
334 222 779 375 1300 446 231 32 620 32 821 1 298 -46 509 -130 639 -253 71
-67 124 -149 140 -214 13 -57 6 -167 -16 -232 -23 -70 -93 -181 -160 -257 -65
-73 -206 -187 -332 -269 -114 -74 -137 -87 -219 -132 -69 -37 -59 -41 12 -5
34 17 65 28 70 25 5 -3 12 1 17 9 4 8 44 34 89 57 166 90 391 261 487 370 215
244 254 480 109 671 -112 149 -315 243 -634 293 -98 16 -594 30 -673 19z"/>
<path d="M6190 6158 c-19 -5 -39 -13 -43 -17 -10 -10 26 -235 58 -362 13 -52
38 -133 54 -179 17 -46 28 -87 24 -91 -5 -3 -21 -10 -38 -13 -28 -7 -36 -1
-128 96 -114 119 -243 276 -282 342 -21 35 -33 46 -52 46 -20 0 -24 -4 -19
-17 24 -62 243 -321 349 -413 40 -36 61 -70 41 -70 -21 0 -362 -80 -518 -121
-568 -151 -1123 -384 -1473 -620 -40 -27 -79 -49 -87 -49 -8 0 -24 24 -37 55
-12 30 -27 55 -32 55 -13 0 -77 -51 -77 -62 0 -5 14 -29 30 -53 17 -24 30 -50
30 -58 0 -7 -19 -29 -42 -48 -24 -19 -75 -65 -115 -102 -76 -72 -84 -74 -127
-32 -13 13 -20 14 -38 4 -22 -12 -22 -12 15 -43 20 -17 37 -36 37 -41 0 -6
-16 -33 -36 -60 -89 -123 -153 -306 -141 -405 31 -265 281 -489 707 -635 58
-19 111 -38 119 -41 31 -11 -9 -25 -100 -36 -52 -6 -98 -14 -102 -18 -5 -5 0
-28 11 -53 l20 -45 83 24 c46 14 125 38 176 55 l92 30 96 -19 c53 -11 98 -22
102 -25 13 -14 -203 -257 -290 -327 -39 -31 -57 -52 -57 -67 0 -13 4 -23 9
-23 30 0 193 164 330 333 35 43 70 77 80 77 9 0 66 -6 127 -14 211 -28 470
-39 759 -33 380 9 686 40 1047 108 86 16 164 29 172 29 23 0 20 -20 -19 -139
-47 -138 -118 -286 -195 -406 -35 -53 -61 -98 -59 -100 8 -7 98 -29 102 -24 2
2 29 63 59 134 90 210 147 404 148 496 0 39 21 65 43 56 9 -3 23 -49 36 -114
13 -59 25 -118 28 -130 4 -19 -2 -26 -41 -43 -25 -10 -46 -22 -46 -26 0 -4 20
-4 45 -1 26 4 47 2 50 -4 13 -19 35 -196 40 -308 5 -108 11 -130 38 -131 12 0
7 170 -8 275 -31 204 -30 193 -4 204 13 6 87 33 164 62 506 186 1040 464 1382
720 50 38 97 69 103 69 38 0 260 -216 368 -357 35 -46 67 -83 71 -83 15 0 65
80 55 89 -5 5 -58 55 -119 111 -110 103 -233 202 -299 241 -20 12 -36 27 -36
34 0 7 16 25 36 40 l36 28 107 -18 c131 -21 317 -66 394 -95 46 -17 61 -19 72
-10 8 7 15 16 15 21 0 20 -295 96 -445 114 -115 14 -117 19 -44 90 76 75 189
229 241 331 69 133 92 224 92 364 0 102 -3 124 -30 200 -86 243 -297 425 -633
544 -63 23 -116 46 -118 53 -5 14 34 26 180 55 59 11 107 25 107 30 0 11 -39
88 -45 88 -10 0 -247 -90 -313 -119 l-73 -32 -77 16 c-42 8 -80 19 -84 23 -15
15 140 220 257 339 49 50 69 78 67 93 -2 11 -7 20 -11 20 -26 0 -218 -227
-319 -377 -23 -34 -46 -64 -51 -67 -4 -3 -66 2 -137 11 -102 13 -217 17 -554
17 -453 0 -615 -11 -1005 -68 -85 -12 -159 -20 -164 -16 -14 8 -48 137 -66
250 -9 52 -18 164 -22 248 -3 83 -9 152 -12 151 -3 0 -22 -5 -41 -11z m1485
-684 c145 -14 380 -50 397 -60 15 -10 8 -29 -47 -115 -30 -48 -55 -90 -55 -94
0 -4 18 8 41 25 22 18 38 38 35 45 -10 27 65 125 96 125 28 0 22 -20 -19 -63
l-38 -39 68 43 68 42 128 -41 c139 -45 316 -128 414 -193 34 -23 100 -81 147
-128 107 -108 163 -212 186 -341 33 -194 -44 -420 -217 -634 l-66 -81 -69 0
c-38 0 -109 3 -159 8 l-90 7 38 -20 c27 -15 47 -19 68 -15 33 7 129 -3 150
-16 12 -7 11 -11 -3 -26 -15 -15 -22 -15 -51 -5 -45 16 -58 14 -24 -4 15 -8
27 -21 27 -29 0 -16 -124 -120 -272 -228 -277 -202 -705 -423 -1158 -599 -68
-26 -134 -48 -146 -48 -19 0 -25 13 -52 123 -24 94 -28 125 -19 133 7 6 102
34 212 62 279 71 584 178 828 291 96 45 117 63 35 30 -279 -113 -444 -169
-698 -238 -228 -62 -390 -95 -402 -83 -5 5 -18 42 -28 82 -10 39 -21 74 -24
78 -13 13 -4 -95 9 -112 19 -26 19 -56 0 -56 -8 0 -15 5 -15 11 0 6 -8 1 -18
-11 -15 -18 -42 -25 -167 -45 -576 -89 -1239 -89 -1745 1 -103 18 -120 23
-120 34 0 4 31 51 70 104 38 53 66 96 62 96 -19 0 -77 -52 -78 -70 -2 -27 -75
-119 -102 -126 -13 -4 -29 -1 -35 5 -9 9 0 22 38 57 l50 44 -75 -40 c-41 -22
-85 -40 -97 -40 -38 0 -288 86 -390 135 -203 96 -359 228 -422 357 -44 89 -58
200 -37 291 20 84 41 136 59 143 8 3 49 -9 92 -26 60 -24 400 -143 502 -176
11 -4 5 6 -15 26 -20 19 -40 29 -49 26 -8 -4 -99 27 -202 68 -253 100 -301
123 -301 139 0 21 98 147 114 147 8 0 44 -36 80 -79 63 -75 138 -145 216 -202
66 -48 65 -43 -10 33 -66 66 -169 199 -219 282 l-16 28 55 51 c347 324 1064
643 1805 802 265 57 227 61 336 -38 52 -47 95 -84 97 -82 9 9 -41 85 -55 85
-20 0 -83 58 -83 77 0 21 30 15 50 -9 l18 -23 -5 27 c-4 22 -1 27 24 32 91 18
432 51 623 60 137 6 503 -5 655 -20z"/>
<path d="M8715 5969 c-113 -68 -111 -67 -102 -76 6 -5 207 125 207 134 0 6 -7
2 -105 -58z"/>
<path d="M8802 5825 c-40 -19 -71 -39 -68 -44 4 -5 36 8 72 29 105 61 103 67
-4 15z"/>
<path d="M3735 4780 c18 -32 98 -130 107 -130 16 0 6 14 -56 81 -32 35 -55 57
-51 49z"/>
<path d="M3580 4684 c44 -52 164 -174 172 -174 19 0 1 21 -95 109 -56 52 -91
82 -77 65z"/>
<path d="M9400 3707 c0 -7 24 -25 53 -39 28 -15 76 -41 105 -58 77 -45 63 -28
-20 27 -40 25 -85 54 -100 65 -32 21 -38 22 -38 5z"/>
<path d="M9351 3543 c0 -8 149 -106 149 -99 0 3 -29 27 -64 55 -60 48 -87 61
-85 44z"/>
<path d="M10670 3543 c-235 -17 -538 -61 -733 -107 -56 -14 -105 -22 -110 -19
-4 2 -13 0 -20 -5 -7 -5 -57 -22 -112 -37 -55 -15 -109 -31 -120 -36 -11 -5
-66 -25 -123 -44 -590 -203 -1002 -534 -1002 -805 0 -214 253 -395 668 -480
352 -71 832 -71 1249 1 136 23 417 89 410 96 -3 2 -63 -7 -133 -21 -562 -109
-1137 -96 -1537 35 -218 71 -393 200 -432 318 -102 310 306 662 1030 891 112
35 118 37 341 84 391 83 801 96 1149 36 163 -28 276 -64 404 -126 93 -46 126
-68 186 -127 96 -97 128 -161 133 -276 5 -101 -16 -178 -76 -275 -103 -171
-338 -369 -614 -520 -49 -26 -88 -50 -88 -53 0 -2 62 28 138 67 535 280 826
621 773 907 -51 278 -346 447 -861 493 -105 9 -411 11 -520 3z"/>
<path d="M2860 3034 c-727 -65 -1360 -253 -1790 -531 -431 -279 -526 -589
-246 -799 222 -167 599 -254 1104 -254 255 0 443 16 672 56 144 25 409 89 419
101 3 3 -7 3 -24 -2 -94 -22 -352 -66 -481 -81 -205 -24 -600 -24 -779 0 -441
59 -730 187 -830 367 -27 48 -30 63 -30 139 0 123 35 192 164 321 287 288 847
514 1486 600 217 29 599 32 790 5 328 -45 557 -138 692 -280 96 -101 127 -174
125 -295 -4 -232 -221 -483 -624 -723 -159 -95 -161 -98 -13 -23 315 161 577
375 693 567 97 162 106 337 25 476 -13 24 -22 50 -19 58 3 7 44 33 91 56 77
39 102 58 75 58 -6 0 -50 -23 -97 -52 -57 -34 -90 -48 -98 -42 -72 54 -125
101 -125 112 0 6 -8 12 -17 12 -9 0 -54 16 -100 36 -96 41 -228 76 -375 99
-99 16 -575 29 -688 19z"/>
<path d="M4180 2944 c-36 -18 -58 -33 -50 -33 24 0 135 54 125 61 -6 3 -39 -9
-75 -28z"/>
<path d="M7016 2498 c-3 -18 -13 -73 -21 -122 -8 -49 -13 -91 -11 -94 2 -2 13
39 24 90 33 148 34 158 23 158 -5 0 -13 -15 -15 -32z"/>
<path d="M6837 2449 c-10 -40 -16 -74 -13 -76 5 -5 46 115 46 134 0 7 -4 13
-8 13 -5 0 -16 -32 -25 -71z"/>
<path d="M6888 2025 c-2 -2 -59 -8 -128 -14 -978 -89 -1878 -475 -2079 -891
-32 -67 -36 -83 -36 -155 0 -68 5 -88 27 -130 51 -93 127 -161 254 -224 395
-198 1127 -237 1784 -95 128 28 272 65 267 70 -2 2 -70 -9 -153 -25 -243 -48
-383 -63 -641 -68 -353 -8 -608 20 -852 94 -417 125 -574 345 -433 607 38 72
191 222 297 293 334 222 776 374 1305 450 181 25 669 26 825 0 335 -55 587
-169 697 -315 68 -89 83 -134 82 -247 0 -84 -4 -110 -26 -161 -86 -206 -312
-415 -654 -608 -130 -73 -111 -72 30 2 241 127 413 247 552 386 280 279 317
553 103 768 -171 171 -495 257 -991 263 -125 1 -229 1 -230 0z"/>
</g>
</svg>
