<?xml version="1.0" encoding="UTF-8"?>
<svg id="Layer_1" xmlns="http://www.w3.org/2000/svg" viewBox="0 0 210.71 19.67">
  <defs>
    <style>
      .cls-1 {
        fill: #26296b;
      }

      .cls-2 {
        fill: #fcb315;
      }

      .cls-3 {
        fill: #555;
      }

      .cls-4 {
        fill: #8fc13e;
      }
    </style>
  </defs>
  <path class="cls-1" d="M0,10.57c0-.77.12-1.5.38-2.18.25-.68.61-1.28,1.09-1.79.47-.51,1.05-.91,1.73-1.21.68-.3,1.45-.45,2.32-.45.57,0,1.09.05,1.56.15.47.1.94.25,1.38.44l-.63,2.42c-.28-.11-.6-.2-.94-.28s-.72-.12-1.14-.12c-.89,0-1.56.28-2,.83-.44.56-.66,1.29-.66,2.2,0,.96.21,1.71.62,2.24s1.13.79,2.16.79c.37,0,.76-.03,1.18-.1.42-.07.81-.18,1.16-.32l.43,2.48c-.35.15-.79.28-1.32.39s-1.11.16-1.75.16c-.98,0-1.82-.15-2.52-.44s-1.28-.69-1.74-1.19-.79-1.09-1-1.78c-.21-.68-.32-1.43-.32-2.23Z"/>
  <path class="cls-1" d="M20.16,10.55c0,.84-.12,1.61-.37,2.31-.24.7-.6,1.29-1.06,1.79s-1.01.88-1.66,1.15c-.64.27-1.36.41-2.16.41s-1.5-.14-2.14-.41c-.64-.27-1.2-.65-1.66-1.15s-.82-1.09-1.08-1.79c-.26-.7-.39-1.47-.39-2.31s.13-1.61.4-2.3c.26-.69.63-1.28,1.1-1.77.47-.49,1.02-.87,1.67-1.14.64-.27,1.34-.41,2.1-.41s1.48.14,2.12.41c.64.27,1.2.65,1.66,1.14s.82,1.08,1.08,1.77c.26.69.39,1.46.39,2.3ZM17.07,10.55c0-.94-.19-1.67-.56-2.21-.37-.54-.9-.8-1.6-.8s-1.23.27-1.61.8c-.38.54-.57,1.27-.57,2.21s.19,1.68.57,2.23c.38.55.91.82,1.61.82s1.22-.27,1.6-.82c.37-.55.56-1.29.56-2.23Z"/>
  <path class="cls-1" d="M26.77,16.12c-.88-.01-1.6-.11-2.14-.28-.55-.18-.98-.42-1.3-.74-.32-.32-.54-.7-.65-1.16s-.17-.97-.17-1.53V.63l3.03-.49v11.65c0,.27.02.52.06.73s.12.4.23.55c.12.15.28.27.5.37.22.1.51.16.87.18l-.43,2.5Z"/>
  <path class="cls-1" d="M38.04,15.55c-.52.15-1.18.29-1.99.42-.81.13-1.67.19-2.56.19s-1.66-.12-2.27-.37c-.6-.24-1.08-.59-1.43-1.03-.35-.44-.6-.97-.75-1.57-.15-.61-.22-1.28-.22-2.01v-5.95h3.03v5.59c0,.98.13,1.68.39,2.11.26.43.74.65,1.44.65.22,0,.45-.01.69-.03.24-.02.46-.04.65-.07V5.22h3.03v10.32Z"/>
  <path class="cls-1" d="M46.76,10.24c0-.97-.13-1.67-.38-2.07-.25-.41-.68-.61-1.29-.61-.19,0-.39.01-.59.03-.2.02-.4.04-.59.07v8.25h-3.03V5.59c.26-.07.56-.14.9-.21.35-.07.71-.14,1.1-.2.39-.06.78-.11,1.19-.14.41-.03.81-.05,1.2-.05.77,0,1.4.1,1.88.29.48.2.88.43,1.19.7.43-.31.93-.55,1.49-.73s1.08-.26,1.55-.26c.85,0,1.55.12,2.1.36.55.24.99.57,1.31,1.01s.55.95.67,1.54c.12.6.18,1.26.18,1.99v6.04h-3.03v-5.67c0-.97-.12-1.67-.38-2.07-.25-.41-.68-.61-1.29-.61-.16,0-.39.04-.68.12-.29.08-.53.18-.72.3.1.31.16.64.18.99.03.35.04.72.04,1.11v5.83h-3.03v-5.67Z"/>
  <path class="cls-1" d="M68.35,10.57c0,.85-.13,1.63-.38,2.32-.25.69-.61,1.28-1.09,1.77-.47.49-1.06.86-1.75,1.13-.69.26-1.48.4-2.36.4-.37,0-.75-.02-1.15-.05-.4-.03-.79-.08-1.18-.13-.39-.05-.76-.12-1.11-.19s-.66-.15-.94-.23V.63l3.03-.49v5.32c.34-.15.69-.26,1.06-.35s.76-.12,1.18-.12c.76,0,1.43.13,2.01.4.58.26,1.07.64,1.46,1.13s.69,1.07.89,1.76c.2.68.31,1.45.31,2.29ZM65.26,10.49c0-1.95-.72-2.93-2.15-2.93-.31,0-.62.04-.92.12-.3.08-.55.18-.74.3v5.51c.15.03.34.05.57.07.23.02.48.03.75.03.83,0,1.45-.28,1.87-.85.42-.57.63-1.32.63-2.26Z"/>
  <path class="cls-1" d="M74,2.13c0,.56-.18.99-.54,1.31s-.78.48-1.27.48-.91-.16-1.27-.48-.54-.76-.54-1.31.18-.99.54-1.31c.36-.32.78-.48,1.27-.48s.91.16,1.27.48c.36.32.54.76.54,1.31ZM73.71,15.91h-3.03V5.22h3.03v10.69Z"/>
  <path class="cls-1" d="M80.4,4.94c.89,0,1.64.1,2.24.31.6.2,1.07.49,1.43.87.36.38.61.84.76,1.38.15.54.22,1.14.22,1.81v6.3c-.43.1-1.04.21-1.81.34-.77.13-1.71.19-2.81.19-.69,0-1.32-.06-1.88-.18-.56-.12-1.05-.32-1.45-.6-.41-.28-.72-.64-.94-1.09-.22-.45-.32-1-.32-1.65s.12-1.15.38-1.59c.25-.43.59-.78,1.01-1.04.42-.26.9-.44,1.44-.56s1.1-.17,1.69-.17c.39,0,.74.02,1.05.05.3.03.55.08.74.13v-.28c0-.52-.16-.93-.47-1.24s-.85-.47-1.63-.47c-.51,0-1.02.04-1.52.11s-.93.18-1.3.31l-.39-2.44c.18-.05.4-.11.66-.17.26-.06.55-.11.86-.16.31-.05.64-.09.99-.12.34-.03.69-.05,1.05-.05ZM80.64,13.8c.3,0,.58,0,.85-.02.27-.01.49-.03.65-.06v-2.3c-.12-.03-.31-.05-.55-.08-.24-.03-.47-.04-.67-.04-.28,0-.55.02-.8.05s-.47.1-.66.19c-.19.1-.34.22-.45.39s-.16.37-.16.61c0,.47.16.8.48.99.32.18.76.27,1.31.27Z"/>
  <path class="cls-4" d="M89.85,9.84c0,1.73.25,3.34.75,4.82.5,1.48,1.24,2.85,2.22,4.11l-1.34.91c-1.06-1.29-1.91-2.77-2.55-4.44-.64-1.67-.97-3.47-.97-5.4s.32-3.72.97-5.4c.64-1.67,1.49-3.15,2.55-4.44l1.34.91c-.98,1.26-1.71,2.63-2.22,4.1-.5,1.48-.75,3.08-.75,4.82Z"/>
  <path class="cls-3" d="M106.1,13.81c0,.31.03.63.08.94.05.32.15.66.28,1.03l-1.67.24c-.15-.3-.26-.66-.35-1.08-.3.27-.7.54-1.2.81-.5.27-1.12.41-1.85.41-.6,0-1.11-.09-1.54-.27-.43-.18-.79-.44-1.08-.78-.28-.34-.49-.74-.63-1.21-.14-.47-.2-.98-.2-1.53,0-.91.15-1.8.46-2.66.31-.87.76-1.64,1.36-2.32s1.36-1.22,2.27-1.64c.91-.41,1.96-.62,3.17-.62.15,0,.3,0,.45.02.15.01.3.03.47.06l1.14-4.76,1.97-.32-2.87,11.89c-.07.31-.13.61-.18.89-.05.28-.08.58-.08.89ZM101.79,14.56c.57,0,1.05-.12,1.45-.36.4-.24.75-.51,1.05-.82.01-.22.04-.45.07-.7s.08-.53.15-.82l1.22-5.08c-.12-.03-.26-.04-.41-.05-.15,0-.29,0-.43,0-.77,0-1.47.15-2.09.45-.62.3-1.16.7-1.6,1.2-.44.5-.78,1.08-1.02,1.74-.24.66-.36,1.34-.36,2.06,0,.31.03.61.1.89s.18.54.32.76.35.4.6.54c.25.14.56.2.92.2Z"/>
  <path class="cls-3" d="M115.85,16.02c-.07-.15-.14-.31-.2-.5-.07-.18-.12-.38-.16-.58-.3.27-.7.54-1.2.81s-1.12.41-1.85.41c-.6,0-1.11-.09-1.53-.28-.43-.19-.78-.45-1.05-.79-.27-.34-.47-.74-.6-1.2-.13-.46-.19-.97-.19-1.52,0-.91.15-1.8.46-2.66.31-.87.76-1.64,1.37-2.32.61-.68,1.38-1.23,2.3-1.65s2-.63,3.23-.63c.37,0,.79.04,1.28.12.49.08.91.22,1.26.41l-1.56,6.38c-.07.31-.13.61-.17.89-.05.28-.07.58-.07.89s.03.63.08.94c.05.32.15.66.28,1.03l-1.67.24ZM112.82,14.56c.57,0,1.06-.12,1.46-.37.41-.24.76-.53,1.06-.85.01-.23.04-.47.07-.72s.08-.5.13-.76l1.22-5.04c-.07-.03-.18-.05-.34-.06s-.29-.02-.42-.02c-.77,0-1.47.15-2.09.45s-1.16.69-1.6,1.19c-.44.49-.78,1.07-1.02,1.73-.24.66-.36,1.34-.36,2.06,0,.28.03.57.08.86.05.29.15.55.3.77.14.22.33.41.57.55.24.14.54.21.92.21Z"/>
  <path class="cls-3" d="M123.29,16.19c-1.02,0-1.76-.22-2.24-.67-.47-.45-.71-1.1-.71-1.95,0-.56.09-1.27.28-2.13l2.17-9.04,1.97-.32-.79,3.27h3.6l-.39,1.59h-3.6l-1.12,4.67c-.16.64-.24,1.19-.24,1.67,0,.45.12.77.37.97.24.2.65.3,1.22.3.39,0,.78-.06,1.16-.19.38-.13.67-.25.87-.36l.14,1.61c-.2.12-.55.25-1.04.4-.49.14-1.04.21-1.67.21Z"/>
  <path class="cls-3" d="M134.71,16.02c-.07-.15-.14-.31-.2-.5-.07-.18-.12-.38-.16-.58-.3.27-.7.54-1.2.81s-1.12.41-1.85.41c-.6,0-1.11-.09-1.53-.28-.43-.19-.78-.45-1.05-.79-.27-.34-.47-.74-.6-1.2-.13-.46-.19-.97-.19-1.52,0-.91.15-1.8.46-2.66.31-.87.76-1.64,1.37-2.32.61-.68,1.38-1.23,2.3-1.65s2-.63,3.23-.63c.37,0,.79.04,1.28.12.49.08.91.22,1.26.41l-1.56,6.38c-.07.31-.13.61-.17.89-.05.28-.07.58-.07.89s.03.63.08.94c.05.32.15.66.28,1.03l-1.67.24ZM131.68,14.56c.57,0,1.06-.12,1.46-.37.41-.24.76-.53,1.06-.85.01-.23.04-.47.07-.72s.08-.5.13-.76l1.22-5.04c-.07-.03-.18-.05-.34-.06s-.29-.02-.42-.02c-.77,0-1.47.15-2.09.45s-1.16.69-1.6,1.19c-.44.49-.78,1.07-1.02,1.73-.24.66-.36,1.34-.36,2.06,0,.28.03.57.08.86.05.29.15.55.3.77.14.22.33.41.57.55.24.14.54.21.92.21Z"/>
  <path class="cls-4" d="M146.49,9.84c0-1.73-.25-3.34-.75-4.82-.5-1.48-1.24-2.84-2.22-4.1l1.34-.91c1.06,1.29,1.91,2.77,2.55,4.44.64,1.67.97,3.47.97,5.4s-.32,3.72-.97,5.4c-.64,1.67-1.49,3.15-2.55,4.44l-1.34-.91c.98-1.26,1.71-2.63,2.22-4.11.5-1.48.75-3.08.75-4.82Z"/>
  <path class="cls-2" d="M150.78,9.1c.32,0,.6-.06.83-.17.23-.11.42-.26.58-.45.16-.18.27-.39.35-.63.07-.24.11-.48.11-.72v-3.66c0-.55.06-1.05.18-1.48.12-.43.33-.8.63-1.09.3-.29.69-.52,1.19-.67.49-.16,1.11-.23,1.84-.23h.08v1.48c-.77,0-1.32.14-1.66.42-.33.28-.5.81-.5,1.6v3.13c0,.89-.12,1.59-.36,2.07-.24.49-.57.87-1.01,1.14.43.27.77.65,1.01,1.14s.36,1.18.36,2.07v3.13c0,.79.17,1.32.5,1.6.33.28.88.42,1.66.42v1.48h-.08c-.73,0-1.34-.08-1.84-.22-.5-.15-.89-.37-1.19-.67-.3-.3-.51-.66-.63-1.1-.12-.43-.18-.93-.18-1.48v-3.66c0-.24-.04-.48-.11-.72s-.19-.45-.35-.63-.35-.33-.58-.45c-.23-.11-.51-.17-.83-.17v-1.46Z"/>
  <path class="cls-1" d="M167.64,16.17c-.85,0-1.6-.14-2.25-.41-.64-.27-1.19-.65-1.63-1.14-.44-.49-.77-1.07-.99-1.74-.22-.67-.33-1.41-.33-2.23s.12-1.56.36-2.24c.24-.68.57-1.26,1.01-1.76.43-.49.97-.88,1.6-1.16s1.33-.42,2.1-.42c.47,0,.95.04,1.42.12.47.08.93.21,1.36.39l-.43,1.61c-.28-.14-.61-.24-.99-.32-.37-.08-.77-.12-1.19-.12-1.06,0-1.87.33-2.43,1-.56.66-.84,1.63-.84,2.91,0,.57.06,1.09.19,1.56.13.47.33.88.61,1.22.28.34.63.6,1.07.78s.96.27,1.59.27c.5,0,.96-.05,1.36-.14.41-.1.72-.2.96-.31l.26,1.59c-.11.07-.26.13-.47.19-.2.06-.43.11-.69.16-.26.05-.53.09-.82.12s-.57.05-.84.05Z"/>
  <path class="cls-1" d="M175.67,16.13c-1.17-.03-1.99-.28-2.48-.75-.49-.47-.73-1.21-.73-2.21V.48l1.89-.32v12.7c0,.31.03.57.08.77.05.2.14.37.26.49.12.12.28.21.49.27.2.06.45.11.75.15l-.26,1.59Z"/>
  <path class="cls-1" d="M186.46,15.62c-.43.11-1.01.22-1.72.35-.71.12-1.53.18-2.47.18-.81,0-1.5-.12-2.05-.36-.56-.24-1-.57-1.34-1.01-.34-.43-.58-.95-.73-1.53-.15-.59-.22-1.24-.22-1.96v-5.94h1.89v5.53c0,1.29.2,2.21.61,2.76.41.56,1.09.83,2.05.83.2,0,.41,0,.63-.02.22-.01.42-.03.61-.05.19-.02.36-.04.52-.06.16-.02.27-.04.34-.07V5.35h1.89v10.26Z"/>
  <path class="cls-1" d="M191.6,5.82c.23-.15.58-.31,1.05-.47.47-.16,1.01-.24,1.62-.24.76,0,1.43.14,2.02.41.59.27,1.09.65,1.49,1.14.41.49.71,1.07.92,1.75s.32,1.42.32,2.24c0,.85-.13,1.62-.38,2.31-.25.68-.61,1.26-1.07,1.74-.46.47-1.02.84-1.67,1.1-.65.26-1.38.39-2.19.39-.88,0-1.66-.06-2.34-.18-.68-.12-1.23-.24-1.67-.37V.48l1.89-.32v5.67ZM191.6,14.28c.19.05.46.11.8.15.35.05.78.07,1.29.07,1.02,0,1.83-.34,2.44-1.01s.91-1.62.91-2.86c0-.54-.05-1.05-.16-1.52-.11-.47-.28-.88-.53-1.23-.24-.35-.56-.62-.94-.81-.39-.2-.85-.29-1.39-.29s-.99.09-1.42.26c-.43.18-.77.36-1,.55v6.69Z"/>
  <path class="cls-2" d="M210.71,10.57c-.32,0-.6.06-.83.17-.23.12-.42.26-.58.45-.16.18-.27.39-.35.63s-.11.48-.11.72v3.66c0,.56-.06,1.05-.18,1.48-.12.43-.33.8-.63,1.1-.3.3-.69.52-1.19.67s-1.11.22-1.84.22h-.08v-1.48c.77,0,1.32-.14,1.66-.42.33-.28.5-.81.5-1.6v-3.13c0-.89.12-1.59.36-2.07.24-.49.57-.87,1.01-1.14-.43-.27-.77-.65-1.01-1.14-.24-.49-.36-1.18-.36-2.07v-3.13c0-.79-.17-1.32-.5-1.6-.33-.28-.88-.42-1.66-.42V0h.08c.73,0,1.34.08,1.84.23.49.16.89.38,1.19.67.3.29.51.65.63,1.09.12.43.18.93.18,1.48v3.66c0,.24.04.48.11.72.07.24.19.45.35.63.16.18.35.33.58.45.23.12.51.17.83.17v1.46Z"/>
</svg>